<?xml version="1.0" encoding="utf-8"?>
<!-- Generator: Adobe Illustrator 27.5.0, SVG Export Plug-In . SVG Version: 6.00 Build 0)  -->
<svg version="1.1" xmlns="http://www.w3.org/2000/svg" xmlns:xlink="http://www.w3.org/1999/xlink" x="0px" y="0px"
	 viewBox="0 0 500 500" style="enable-background:new 0 0 500 500;" xml:space="preserve">
<g id="BACKGROUND">
	<rect x="0.055" y="0.366" style="fill:#1b3035;" width="500" height="500"/>
</g>
<g id="OBJECTS">
	<!-- <text transform="matrix(1 0 0 1 193.9266 348.0255)"><tspan x="0" y="0" style="fill:#CC9DA9; font-family:'Norwester-Regular'; font-size:35.6101px; letter-spacing:3;">happy</tspan><tspan x="-10.148" y="35.61" style="fill:#CC9DA9; font-family:'Norwester-Regular'; font-size:35.6101px; letter-spacing:3;">basket</tspan></text> -->
	<g>
		<g>
			<path style="fill:#29C26E;" d="M261.484,145.838c-11.508-4.132-24.235-4.286-35.84-0.432
				c-11.604,3.854-21.712,11.591-28.461,21.787c-0.225,0.339-0.34,0.738-0.332,1.144l0.845,42.037
				c0.011,0.556,0.253,1.082,0.667,1.452c0.368,0.329,0.843,0.508,1.332,0.508c0.062,0,0.124-0.003,0.185-0.009l57.334-5.333
				c0.979-0.091,1.745-0.879,1.811-1.859l3.779-57.279C262.863,146.962,262.324,146.14,261.484,145.838z"/>
			<path style="fill:#25B064;" d="M266.094,162.082c-0.918-0.27-1.896,0.146-2.338,0.992c-0.129,0.245-13.22,24.402-51.288,20.613
				c-1.108-0.111-2.088,0.333-2.686,1.217c-1.053,1.556-1.567,4.556,5.702,20.559c3.687,8.117,7.731,15.885,7.771,15.962
				c0.354,0.679,1.049,1.076,1.774,1.076c0.25,0,0.504-0.047,0.749-0.146l36.667-14.833c0.694-0.281,1.173-0.925,1.241-1.671
				l3.833-41.667C267.608,163.232,267.01,162.352,266.094,162.082z"/>
			<g>
				<path style="fill:#22A35D;" d="M216.503,171.237c-0.33,0-0.664-0.082-0.972-0.254c-0.965-0.538-1.311-1.756-0.772-2.721
					c3.433-6.155,8.422-11.356,14.429-15.042c0.941-0.578,2.173-0.283,2.75,0.659s0.283,2.173-0.659,2.75
					c-5.423,3.328-9.928,8.024-13.027,13.582C217.885,170.867,217.204,171.237,216.503,171.237z"/>
			</g>
			<g>
				<path style="fill:#22A35D;" d="M231.453,194.988c-0.107,0-0.216-0.009-0.325-0.027c-1.09-0.178-1.83-1.206-1.651-2.296
					c2.011-12.313,6.165-24.051,12.344-34.889c0.546-0.96,1.769-1.293,2.728-0.747c0.959,0.547,1.294,1.769,0.747,2.728
					c-5.943,10.422-9.937,21.71-11.872,33.552C233.264,194.291,232.416,194.988,231.453,194.988z"/>
			</g>
		</g>
		<g>
			<path style="fill:#29C26E;" d="M349.677,184.07c-4.709-5.296-12.428-7.458-19.203-5.379c-0.772,0.237-1.326,0.916-1.404,1.72
				l-2.032,21.063c-0.052,0.541,0.118,1.079,0.472,1.492c0.354,0.413,0.859,0.664,1.401,0.696l21.92,1.298
				c0.04,0.002,0.079,0.003,0.119,0.003c0.788,0,1.509-0.465,1.829-1.194C355.634,197.284,354.388,189.367,349.677,184.07z"/>
			<path style="fill:#25B064;" d="M353.964,193.03c-0.116-0.639-0.535-1.182-1.124-1.456c-0.586-0.274-1.273-0.246-1.837,0.077
				c-5.577,3.191-12.409,3.005-20.309-0.553c-0.588-0.264-1.268-0.23-1.825,0.094c-0.558,0.324-0.925,0.896-0.987,1.538
				l-0.844,8.744c-0.052,0.541,0.118,1.079,0.472,1.492c0.353,0.413,0.859,0.664,1.401,0.696l21.92,1.298
				c0.04,0.002,0.079,0.003,0.119,0.003c0.788,0,1.509-0.465,1.829-1.194C354.211,200.52,354.631,196.706,353.964,193.03z"/>
		</g>
		<g>
			<path style="fill:#F07733;" d="M314.59,169.723c-0.972-6.734-7.761-12.038-14.53-11.361c-0.357,0.036-0.72,0.086-1.082,0.138
				c-0.967,0.136-1.878,0.265-2.462,0.013c-0.581-0.251-1.081-0.962-1.66-1.787c-0.384-0.547-0.78-1.112-1.275-1.651
				c-1.788-1.943-4.423-2.956-7.053-2.715c-2.629,0.243-5.035,1.723-6.438,3.96c-0.059,0.094-0.108,0.192-0.151,0.294l-20.09,48.285
				c-0.248,0.597-0.192,1.277,0.149,1.826c0.343,0.549,0.929,0.898,1.574,0.938l43.333,2.667c0.042,0.003,0.083,0.004,0.124,0.004
				c0.948,0,1.774-0.67,1.961-1.612l7.582-38.325C314.617,170.174,314.623,169.947,314.59,169.723z"/>
			<path style="fill:#F05633;" d="M294.82,184.038c-0.622-0.827-1.641-1.175-2.717-0.93c-13.063,2.943-23.865-3.711-24.006-3.798
				c-0.548-0.346-1.228-0.408-1.828-0.16c-0.6,0.246-1.043,0.768-1.189,1.4c-0.245,1.063-6.012,26.058-6.512,28.558
				c-0.139,0.69,0.024,1.4,0.458,2c1.825,2.524,12.569,4.318,21.261,5.378c0.081,0.01,0.162,0.015,0.243,0.015
				c0.722,0,1.396-0.392,1.751-1.035C297.574,187.701,295.573,185.04,294.82,184.038z"/>
		</g>
		<g>
			<path style="fill:#5A93E8;" d="M336.094,165.243c-0.831-0.727-2.096-0.639-2.822,0.191c-0.136,0.156-0.257,0.322-0.387,0.482
				l-8.78-3.863c0.433-0.984,0.014-2.14-0.963-2.608c-0.994-0.477-2.19-0.056-2.668,0.941c-2.911,6.087-8.806,9.769-16.599,10.369
				c-10.385,0.799-14.879,9.763-15.382,10.84l-11.213,20.183c-0.337,0.605-0.336,1.342,0.002,1.947
				c0.339,0.605,0.966,0.991,1.658,1.022l50.239,2.216c0.029,0.001,0.059,0.002,0.088,0.002c0.557,0,1.09-0.232,1.47-0.643
				c0.306-0.332,7.45-8.23,3.933-18.492c-2.802-8.176-2.214-15.38,1.615-19.766C337.012,167.233,336.926,165.97,336.094,165.243z"/>
			<path style="fill:#4F81CC;" d="M334.56,187.833l-0.098-0.312c-0.169-0.519-0.541-0.945-1.031-1.182
				c-0.489-0.236-1.055-0.263-1.565-0.072c-9.991,3.741-29.107,8.944-44.861,1.763c-0.948-0.434-2.066-0.063-2.571,0.849
				l-7.152,12.898c-0.336,0.605-0.335,1.342,0.002,1.947c0.338,0.605,0.964,0.991,1.655,1.022l50.142,2.216
				c0.029,0.001,0.058,0.002,0.088,0.002c0.556,0,1.088-0.232,1.467-0.643C330.939,205.992,338.07,198.093,334.56,187.833z"/>
			<path style="fill:#E8C631;" d="M341.366,160.044c-0.103-0.521-0.408-0.979-0.85-1.274l-12.484-8.358
				c-0.917-0.613-2.16-0.369-2.774,0.549l-4.482,6.695c-0.295,0.441-0.403,0.981-0.3,1.501c0.103,0.52,0.408,0.978,0.85,1.273
				l12.484,8.357c0.342,0.229,0.728,0.338,1.11,0.338c0.645,0,1.278-0.311,1.664-0.887l4.482-6.695
				C341.361,161.104,341.468,160.564,341.366,160.044z"/>
		</g>
		<g>
			<path style="fill:#E8C631;" d="M223.24,202.38c-3.112-9.887-6.942-17.804-11.708-24.203
				c-5.937-7.973-13.409-13.649-21.607-16.413c-9.317-3.142-19.445-2.213-27.091,2.482c-5.875,3.608-10.684,9.671-13.538,17.07
				c-2.283,5.918-3.453,12.843-3.579,21.168c-0.008,0.534,0.198,1.048,0.571,1.429c0.373,0.381,0.883,0.598,1.417,0.601
				l73.615,0.465c0.004,0,0.008,0,0.013,0c0.634,0,1.231-0.301,1.609-0.812C223.321,203.655,223.432,202.99,223.24,202.38z"/>
			<path style="fill:#E8B131;" d="M223.24,202.38c-0.915-2.904-1.938-5.749-3.041-8.455c-0.353-0.863-1.253-1.375-2.174-1.218
				c-31.948,5.215-54.597-6.193-65.254-13.458c-0.496-0.338-1.117-0.435-1.691-0.266c-0.575,0.169-1.044,0.587-1.277,1.14
				l-0.161,0.372c-0.119,0.272-0.238,0.545-0.345,0.822c-2.283,5.918-3.453,12.843-3.579,21.168
				c-0.008,0.534,0.198,1.048,0.571,1.429c0.373,0.381,0.883,0.598,1.417,0.601l73.615,0.465c0.004,0,0.008,0,0.013,0
				c0.634,0,1.232-0.301,1.609-0.812C223.321,203.655,223.432,202.99,223.24,202.38z"/>
			<path style="fill:#29C26E;" d="M170.347,137.08c-0.677-0.891-1.382-1.765-2.088-2.639c-1.877-2.323-3.649-4.517-4.87-7.014
				c-0.367-0.75-1.157-1.191-1.995-1.112c-0.832,0.083-1.525,0.675-1.736,1.483l-3.113,11.886c-0.698,2.662-1.419,5.415-1.466,8.34
				c-0.075,4.581,3.057,9.955,6.98,11.98c1.215,0.627,2.463,0.938,3.704,0.938c1.677,0,3.338-0.57,4.875-1.701
				c2.604-1.915,4.147-4.435,4.588-7.489C175.853,147.411,174.029,141.925,170.347,137.08z"/>
			<g>
				<path style="fill:#22A35D;" d="M170.506,163.762c-0.75,0-1.469-0.424-1.811-1.147c-2.365-5.016-4.049-10.329-5.007-15.792
					c-0.19-1.088,0.537-2.125,1.625-2.315c1.085-0.189,2.124,0.537,2.315,1.625c0.896,5.112,2.472,10.084,4.685,14.777
					c0.471,0.999,0.043,2.191-0.956,2.662C171.082,163.701,170.792,163.762,170.506,163.762z"/>
			</g>
		</g>
		<g>
			<polyline style="fill:#ad68cd;" points="151.696,226.711 169.696,306.711 322.362,306.711 347.696,226.711 			"/>
		</g>
		<g>
			<polygon style="fill:#533e79;" points="153.646,235 344.951,235 347.696,226.333 151.696,226.333 			"/>
		</g>
		<path style="fill:#ad68cd;" d="M351.696,201.667H145.695c-1.104,0-2,0.896-2,2v22c0,1.104,0.896,2,2,2h206.001
			c1.104,0,2-0.896,2-2v-22C353.696,202.562,352.8,201.667,351.696,201.667z"/>
		<g>
			<path style="fill:#5d4686;" d="M287.977,143.128c-0.238-0.474-0.655-0.834-1.159-1l-20.887-6.909
				c-1.047-0.348-2.181,0.222-2.526,1.271l-30.828,93.197c-0.347,1.048,0.222,2.18,1.271,2.527l20.887,6.909
				c0.205,0.067,0.417,0.101,0.628,0.101c0.309,0,0.617-0.072,0.898-0.213c0.474-0.238,0.833-0.655,1-1.159l30.827-93.198
				C288.256,144.151,288.215,143.602,287.977,143.128z"/>
			<path style="fill:#936ed3;" d="M248.779,212.5c-4.641,0-8.417,3.775-8.417,8.417s3.775,8.417,8.417,8.417
				s8.416-3.776,8.416-8.417S253.42,212.5,248.779,212.5z"/>
		</g>
		<g>
			<path style="fill:#5d4686;" d="M263.633,243.5c-2.778,0-4.954,2.75-4.954,6.261c0,3.51,2.176,6.26,4.954,6.26
				c2.777,0,4.953-2.75,4.953-6.26C268.587,246.25,266.411,243.5,263.633,243.5z"/>
			<g>
				<path style="fill:#5d4686;" d="M225.687,255.851c-1.104,0-2-0.896-2-2c0-2.407-0.508-4.458-0.954-5.229
					c-0.446,0.771-0.954,2.821-0.954,5.229c0,1.104-0.896,2-2,2s-2-0.896-2-2c0-4.564,1.301-9.441,4.954-9.441
					c3.652,0,4.954,4.877,4.954,9.441C227.687,254.955,226.791,255.851,225.687,255.851z"/>
			</g>
			<g>
				<path style="fill:#5d4686;" d="M241.801,258.75c-0.085,0-0.17-0.001-0.257-0.004c-2.55-0.061-3.957-1.087-4.688-1.938
					c-1.476-1.717-1.254-3.828-1.224-4.063c0.141-1.096,1.137-1.877,2.238-1.729c1.083,0.139,1.853,1.12,1.734,2.201
					c-0.003,0.051-0.028,0.636,0.299,1.001c0.372,0.413,1.149,0.517,1.736,0.531c2.3,0.045,2.695-1.097,2.725-1.789
					c0.046-1.072,0.931-1.938,1.999-1.938c0.015,0,0.029,0,0.043,0.001c1.087,0.023,1.958,0.888,1.958,1.976
					c0,0.237-0.048,2.366-1.73,4.008C245.448,258.163,243.823,258.75,241.801,258.75z"/>
			</g>
		</g>
		<g>
			<g>
				<path style="fill:#5d4686;" d="M197.279,306.711v-22.996c0-4.377-3.13-8.965-7.353-8.965s-7.647,3.548-7.647,7.925v24.035
					H197.279z"/>
			</g>
			<g>
				<path style="fill:#5d4686;" d="M234.612,306.711v-22.996c0-4.377-3.13-8.965-7.353-8.965s-7.647,3.548-7.647,7.925v24.035
					H234.612z"/>
			</g>
			<g>
				<path style="fill:#5d4686;" d="M271.946,306.711v-22.996c0-4.377-3.13-8.965-7.353-8.965s-7.647,3.548-7.647,7.925v24.035
					H271.946z"/>
			</g>
			<g>
				<path style="fill:#5d4686;" d="M309.279,306.711v-22.996c0-4.377-3.13-8.965-7.353-8.965c-4.223,0-7.647,3.548-7.647,7.925
					v24.035H309.279z"/>
			</g>
		</g>
	</g>
</g>
</svg>
